<svg xmlns="http://www.w3.org/2000/svg" width="16" height="19" viewBox="0 0 16 19">
  <g fill="none" fill-rule="evenodd" transform="translate(.697)">
    <path fill="#5856D5" d="M13.399,18.736784 L3.423,16.365784 C2.745,16.204784 2.267,15.600784 2.267,14.905784 L2.267,6.81478398 C2.267,6.11978398 2.745,5.51578398 3.423,5.35478398 L13.324,3.00178398 C13.812,2.88578398 14.345,2.97778398 14.717,3.31178398 C15.043,3.60378398 15.211,4.00378398 15.211,4.40978398 L15.211,17.199784 C15.211,17.848784 14.842,18.479784 14.227,18.694784 C13.957,18.788784 13.67,18.800784 13.399,18.736784" opacity=".2"/>
    <path fill="#5856D5" d="M13.399,0.0399839825 L3.423,2.41098398 C2.745,2.57198398 2.267,3.17598398 2.267,3.87098398 L2.267,11.962984 C2.267,12.656984 2.745,13.260984 3.423,13.421984 L13.324,15.774984 C13.812,15.890984 14.345,15.799984 14.717,15.464984 C15.043,15.172984 15.211,14.772984 15.211,14.366984 L15.211,1.57698398 C15.211,0.927983983 14.842,0.296983983 14.227,0.0819839825 C13.957,-0.0120160175 13.67,-0.0240160175 13.399,0.0399839825" opacity=".2"/>
    <path fill="#5856D5" d="M2.13,0.0470839825 L13.943,2.86508398 C14.687,3.04208398 15.212,3.70708398 15.212,4.47208398 L15.212,14.198084 C15.212,14.963084 14.687,15.628084 13.943,15.805084 L2.139,18.620084 C1.745,18.714084 1.322,18.692084 0.964,18.502084 C0.332,18.168084 -3.55271368e-15,17.559084 -3.55271368e-15,16.941084 L-3.55271368e-15,1.77108398 C-3.55271368e-15,1.31608398 0.149,0.859083983 0.469,0.536083983 C0.935,0.0660839825 1.562,-0.0879160175 2.13,0.0470839825"/>
    <path fill="#FFF" d="M6.0001,11.949184 C6.0001,12.477184 5.5691,12.904184 5.0371,12.904184 C4.5041,12.904184 4.0731,12.477184 4.0731,11.949184 C4.0731,11.422184 4.5041,10.994184 5.0371,10.994184 C5.5691,10.994184 6.0001,11.422184 6.0001,11.949184 M8.5691,11.949184 C8.5691,12.477184 8.1381,12.904184 7.6061,12.904184 C7.0741,12.904184 6.6431,12.477184 6.6431,11.949184 C6.6431,11.422184 7.0741,10.994184 7.6061,10.994184 C8.1381,10.994184 8.5691,11.422184 8.5691,11.949184 M6.0001,9.38018398 C6.0001,9.90718398 5.5691,10.335184 5.0371,10.335184 C4.5041,10.335184 4.0731,9.90718398 4.0731,9.38018398 C4.0731,8.85218398 4.5041,8.42518398 5.0371,8.42518398 C5.5691,8.42518398 6.0001,8.85218398 6.0001,9.38018398 M8.5691,9.38018398 C8.5691,9.90718398 8.1381,10.335184 7.6061,10.335184 C7.0741,10.335184 6.6431,9.90718398 6.6431,9.38018398 C6.6431,8.85218398 7.0741,8.42518398 7.6061,8.42518398 C8.1381,8.42518398 8.5691,8.85218398 8.5691,9.38018398 M11.1391,6.81118398 C11.1391,7.33818398 10.7071,7.76618398 10.1751,7.76618398 C9.6431,7.76618398 9.2111,7.33818398 9.2111,6.81118398 C9.2111,6.28318398 9.6431,5.85518398 10.1751,5.85518398 C10.7071,5.85518398 11.1391,6.28318398 11.1391,6.81118398 M8.5691,6.81118398 C8.5691,7.33818398 8.1381,7.76618398 7.6061,7.76618398 C7.0741,7.76618398 6.6431,7.33818398 6.6431,6.81118398 C6.6431,6.28318398 7.0741,5.85518398 7.6061,5.85518398 C8.1381,5.85518398 8.5691,6.28318398 8.5691,6.81118398 M6.0001,6.81118398 C6.0001,7.33818398 5.5691,7.76618398 5.0371,7.76618398 C4.5041,7.76618398 4.0731,7.33818398 4.0731,6.81118398 C4.0731,6.28318398 4.5041,5.85518398 5.0371,5.85518398 C5.5691,5.85518398 6.0001,6.28318398 6.0001,6.81118398 M9.2111,12.022184 L9.2111,9.32418398 C9.2111,8.82718398 9.6431,8.42518398 10.1751,8.42518398 C10.7071,8.42518398 11.1391,8.82718398 11.1391,9.32418398 L11.1391,12.022184 C11.1391,12.518184 10.7071,12.921184 10.1751,12.921184 C9.6431,12.921184 9.2111,12.518184 9.2111,12.022184"/>
  </g>
</svg>
