<svg xmlns="http://www.w3.org/2000/svg" width="17" height="19" viewBox="0 0 17 19">
  <g fill="none" fill-rule="evenodd" transform="translate(.88)">
    <path fill="#FF3B30" d="M13.399,18.736784 L3.423,16.365784 C2.745,16.204784 2.267,15.600784 2.267,14.905784 L2.267,6.81478398 C2.267,6.11978398 2.745,5.51578398 3.423,5.35478398 L13.324,3.00178398 C13.812,2.88578398 14.345,2.97778398 14.717,3.31178398 C15.043,3.60378398 15.211,4.00378398 15.211,4.40978398 L15.211,17.199784 C15.211,17.848784 14.842,18.479784 14.227,18.694784 C13.957,18.788784 13.67,18.800784 13.399,18.736784" opacity=".2"/>
    <path fill="#FF3B30" d="M13.399,0.0399839825 L3.423,2.41098398 C2.745,2.57198398 2.267,3.17598398 2.267,3.87098398 L2.267,11.962984 C2.267,12.656984 2.745,13.260984 3.423,13.421984 L13.324,15.774984 C13.812,15.890984 14.345,15.799984 14.717,15.464984 C15.043,15.172984 15.211,14.772984 15.211,14.366984 L15.211,1.57698398 C15.211,0.927983983 14.842,0.296983983 14.227,0.0819839825 C13.957,-0.0120160175 13.67,-0.0240160175 13.399,0.0399839825" opacity=".2"/>
    <polygon points="0 0 15.212 0 15.212 18.674 0 18.674"/>
    <path fill="#FF3B30" d="M2.13,0.0470839825 L13.943,2.86508398 C14.687,3.04208398 15.212,3.70708398 15.212,4.47208398 L15.212,14.198084 C15.212,14.963084 14.687,15.628084 13.943,15.805084 L2.138,18.620084 C1.745,18.714084 1.322,18.692084 0.964,18.502084 C0.332,18.168084 0,17.559084 0,16.941084 L0,1.77108398 C0,1.31608398 0.149,0.859083983 0.469,0.536083983 C0.935,0.0660839825 1.562,-0.0879160175 2.13,0.0470839825"/>
    <path fill="#FFF" d="M9.2096,6.75798398 C9.2096,6.26198398 9.6406,5.85998398 10.1716,5.85998398 C10.7036,5.85998398 11.1346,6.26198398 11.1346,6.75798398 L11.1346,12.018984 C11.1346,12.514984 10.7036,12.916984 10.1716,12.916984 C9.6406,12.916984 9.2096,12.514984 9.2096,12.018984 L9.2096,6.75798398 Z M6.6436,6.75798398 C6.6436,6.26198398 7.0746,5.85998398 7.6056,5.85998398 C8.1376,5.85998398 8.5676,6.26198398 8.5676,6.75798398 L8.5676,12.018984 C8.5676,12.514984 8.1376,12.916984 7.6056,12.916984 C7.0746,12.916984 6.6436,12.514984 6.6436,12.018984 L6.6436,6.75798398 Z M4.0776,6.75798398 C4.0776,6.26198398 4.5076,5.85998398 5.0396,5.85998398 C5.5706,5.85998398 6.0016,6.26198398 6.0016,6.75798398 L6.0016,12.018984 C6.0016,12.514984 5.5706,12.916984 5.0396,12.916984 C4.5076,12.916984 4.0776,12.514984 4.0776,12.018984 L4.0776,6.75798398 Z"/>
  </g>
</svg>
