<svg xmlns="http://www.w3.org/2000/svg" width="16" height="19" viewBox="0 0 16 19">
  <g fill="none" fill-rule="evenodd" transform="translate(.395)">
    <path fill="#027AFF" d="M13.3985,18.736784 L3.4225,16.365784 C2.7445,16.204784 2.2665,15.600784 2.2665,14.905784 L2.2665,6.81478398 C2.2665,6.11978398 2.7445,5.51578398 3.4225,5.35478398 L13.3235,3.00178398 C13.8115,2.88578398 14.3445,2.97778398 14.7165,3.31178398 C15.0425,3.60378398 15.2105,4.00378398 15.2105,4.40978398 L15.2105,17.199784 C15.2105,17.848784 14.8415,18.479784 14.2265,18.694784 C13.9565,18.788784 13.6695,18.800784 13.3985,18.736784" opacity=".2"/>
    <path fill="#027AFF" d="M13.3985,0.0399839825 L3.4225,2.41098398 C2.7445,2.57198398 2.2665,3.17598398 2.2665,3.87098398 L2.2665,11.962984 C2.2665,12.656984 2.7445,13.260984 3.4225,13.421984 L13.3235,15.774984 C13.8115,15.890984 14.3445,15.799984 14.7165,15.464984 C15.0425,15.172984 15.2105,14.772984 15.2105,14.366984 L15.2105,1.57698398 C15.2105,0.927983983 14.8415,0.296983983 14.2265,0.0819839825 C13.9565,-0.0120160175 13.6695,-0.0240160175 13.3985,0.0399839825" opacity=".2"/>
    <path fill="#027AFF" d="M2.129,0.0470839825 L13.942,2.86508398 C14.686,3.04208398 15.211,3.70708398 15.211,4.47208398 L15.211,14.198084 C15.211,14.963084 14.686,15.628084 13.942,15.805084 L2.138,18.620084 C1.745,18.714084 1.321,18.692084 0.963,18.502084 C0.331,18.168084 7.10542736e-15,17.559084 7.10542736e-15,16.941084 L7.10542736e-15,1.77108398 C7.10542736e-15,1.31608398 0.148,0.859083983 0.468,0.536083983 C0.934,0.0660839825 1.562,-0.0879160175 2.129,0.0470839825"/>
    <path fill="#FFF" d="M6.0035,6.81688398 C6.0035,7.34288398 5.5725,7.76988398 5.0425,7.76988398 C4.5115,7.76988398 4.0815,7.34288398 4.0815,6.81688398 C4.0815,6.29088398 4.5115,5.86388398 5.0425,5.86388398 C5.5725,5.86388398 6.0035,6.29088398 6.0035,6.81688398 M8.5665,6.81688398 C8.5665,7.34288398 8.1365,7.76988398 7.6055,7.76988398 C7.0745,7.76988398 6.6445,7.34288398 6.6445,6.81688398 C6.6445,6.29088398 7.0745,5.86388398 7.6055,5.86388398 C8.1365,5.86388398 8.5665,6.29088398 8.5665,6.81688398 M11.1295,6.81688398 C11.1295,7.34288398 10.6995,7.76988398 10.1685,7.76988398 C9.6375,7.76988398 9.2075,7.34288398 9.2075,6.81688398 C9.2075,6.29088398 9.6375,5.86388398 10.1685,5.86388398 C10.6995,5.86388398 11.1295,6.29088398 11.1295,6.81688398 M4.0815,12.015884 L4.0815,9.32388398 C4.0815,8.82888398 4.5115,8.42688398 5.0425,8.42688398 C5.5725,8.42688398 6.0035,8.82888398 6.0035,9.32388398 L6.0035,12.015884 C6.0035,12.510884 5.5725,12.912884 5.0425,12.912884 C4.5115,12.912884 4.0815,12.510884 4.0815,12.015884 M6.6445,12.015884 L6.6445,9.32388398 C6.6445,8.82888398 7.0745,8.42688398 7.6055,8.42688398 C8.1365,8.42688398 8.5665,8.82888398 8.5665,9.32388398 L8.5665,12.015884 C8.5665,12.510884 8.1365,12.912884 7.6055,12.912884 C7.0745,12.912884 6.6445,12.510884 6.6445,12.015884 M9.2075,12.015884 L9.2075,9.32388398 C9.2075,8.82888398 9.6375,8.42688398 10.1685,8.42688398 C10.6995,8.42688398 11.1295,8.82888398 11.1295,9.32388398 L11.1295,12.015884 C11.1295,12.510884 10.6995,12.912884 10.1685,12.912884 C9.6375,12.912884 9.2075,12.510884 9.2075,12.015884"/>
  </g>
</svg>
