<svg xmlns="http://www.w3.org/2000/svg" width="16" height="19" viewBox="0 0 16 19">
  <g fill="none" fill-rule="evenodd">
    <path fill="#354049" d="M13.3985,18.736784 L3.4225,16.365784 C2.7445,16.204784 2.2655,15.600784 2.2655,14.905784 L2.2655,6.81478398 C2.2655,6.11978398 2.7445,5.51578398 3.4225,5.35478398 L13.3235,3.00178398 C13.8115,2.88578398 14.3435,2.97778398 14.7165,3.31178398 C15.0425,3.60378398 15.2105,4.00378398 15.2105,4.40978398 L15.2105,17.199784 C15.2105,17.848784 14.8405,18.479784 14.2265,18.694784 C13.9565,18.788784 13.6695,18.800784 13.3985,18.736784" opacity=".2"/>
    <path fill="#354049" d="M13.3985,0.0399839825 L3.4225,2.41098398 C2.7445,2.57198398 2.2655,3.17598398 2.2655,3.87098398 L2.2655,11.962984 C2.2655,12.656984 2.7445,13.260984 3.4225,13.421984 L13.3235,15.774984 C13.8115,15.890984 14.3435,15.799984 14.7165,15.464984 C15.0425,15.172984 15.2105,14.772984 15.2105,14.366984 L15.2105,1.57698398 C15.2105,0.927983983 14.8405,0.296983983 14.2265,0.0819839825 C13.9565,-0.0120160175 13.6695,-0.0240160175 13.3985,0.0399839825" opacity=".2"/>
    <path fill="#354049" d="M2.129,0.0470839825 L13.942,2.86508398 C14.686,3.04208398 15.211,3.70708398 15.211,4.47208398 L15.211,14.198084 C15.211,14.963084 14.686,15.628084 13.942,15.805084 L2.138,18.620084 C1.744,18.714084 1.321,18.692084 0.963,18.502084 C0.331,18.168084 6.21724894e-15,17.559084 6.21724894e-15,16.941084 L6.21724894e-15,1.77108398 C6.21724894e-15,1.31608398 0.148,0.859083983 0.468,0.536083983 C0.934,0.0660839825 1.562,-0.0879160175 2.129,0.0470839825"/>
    <path fill="#FFF" d="M6.0328 11.530784C5.9288 11.633784 5.7828 11.694784 5.6458 11.694784 5.5158 11.694784 5.3958 11.651784 5.2928 11.556784L3.5358 9.93778398 3.5358 11.220784C3.5358 11.513784 3.3038 11.745784 3.0118 11.745784 2.7188 11.745784 2.4858 11.513784 2.4858 11.220784L2.4858 5.73778398C2.4858 5.44478398 2.7188 5.21178398 3.0118 5.21178398 3.3038 5.21178398 3.5358 5.44478398 3.5358 5.73778398L3.5358 8.64678398 5.2318 7.47678398C5.4728 7.31278398 5.8008 7.36378398 5.9638 7.60478398 6.1368 7.83778398 6.0758 8.16478398 5.8438 8.33678398L4.4058 9.30978398 6.0068 10.781784C6.2138 10.979784 6.2308 11.306784 6.0328 11.530784M10.0182 9.56808398C10.0182 8.94008398 9.5012 8.43208398 8.8822 8.43208398 8.2532 8.43208398 7.7462 8.94008398 7.7462 9.56808398 7.7462 10.196084 8.2532 10.704084 8.8822 10.704084 9.5012 10.704084 10.0182 10.196084 10.0182 9.56808398M11.0602 9.56808398C11.0602 10.773084 10.0792 11.746084 8.8822 11.746084 8.4342 11.746084 8.0212 11.608084 7.6682 11.384084L7.6682 13.399084C7.6682 13.691084 7.4352 13.924084 7.1512 13.924084 6.8592 13.924084 6.6262 13.691084 6.6262 13.399084L6.6262 7.92408398C6.6262 7.64008398 6.8592 7.40708398 7.1512 7.40708398 7.3842 7.40708398 7.5822 7.56208398 7.6512 7.76908398 7.9952 7.52808398 8.4262 7.39008398 8.8822 7.39008398 10.0792 7.39008398 11.0602 8.36308398 11.0602 9.56808398M12.1988 6.65838398C11.8978 6.65838398 11.6568 6.41738398 11.6568 6.13338398L11.6568 6.09038398C11.6568 5.78938398 11.8978 5.55638398 12.1988 5.55638398 12.4828 5.55638398 12.7238 5.78938398 12.7238 6.09038398L12.7238 6.13338398C12.7238 6.41738398 12.4828 6.65838398 12.1988 6.65838398M12.1988 11.711384C11.8978 11.711384 11.6568 11.470384 11.6568 11.177384L11.6568 7.85538398C11.6568 7.56238398 11.8978 7.32938398 12.1988 7.32938398 12.4828 7.32938398 12.7238 7.56238398 12.7238 7.85538398L12.7238 11.177384C12.7238 11.470384 12.4828 11.711384 12.1988 11.711384"/>
  </g>
</svg>
