<svg xmlns="http://www.w3.org/2000/svg" width="16" height="19" viewBox="0 0 16 19">
  <g fill="none" fill-rule="evenodd" transform="translate(.486)">
    <path fill="#5AC8FA" d="M13.3985,18.736784 L3.4225,16.365784 C2.7445,16.204784 2.2665,15.600784 2.2665,14.905784 L2.2665,6.81478398 C2.2665,6.11978398 2.7445,5.51578398 3.4225,5.35478398 L13.3235,3.00178398 C13.8115,2.88578398 14.3445,2.97778398 14.7165,3.31178398 C15.0425,3.60378398 15.2105,4.00378398 15.2105,4.40978398 L15.2105,17.199784 C15.2105,17.848784 14.8415,18.479784 14.2265,18.694784 C13.9565,18.788784 13.6695,18.800784 13.3985,18.736784" opacity=".2"/>
    <path fill="#5AC8FA" d="M13.3985,0.0399839825 L3.4225,2.41098398 C2.7445,2.57198398 2.2665,3.17598398 2.2665,3.87098398 L2.2665,11.962984 C2.2665,12.656984 2.7445,13.260984 3.4225,13.421984 L13.3235,15.774984 C13.8115,15.890984 14.3445,15.799984 14.7165,15.464984 C15.0425,15.172984 15.2105,14.772984 15.2105,14.366984 L15.2105,1.57698398 C15.2105,0.927983983 14.8415,0.296983983 14.2265,0.0819839825 C13.9565,-0.0120160175 13.6695,-0.0240160175 13.3985,0.0399839825" opacity=".2"/>
    <path fill="#5AC8FA" d="M2.129,0.0470839825 L13.942,2.86508398 C14.686,3.04208398 15.211,3.70708398 15.211,4.47208398 L15.211,14.198084 C15.211,14.963084 14.686,15.628084 13.942,15.805084 L2.138,18.620084 C1.744,18.714084 1.321,18.692084 0.963,18.502084 C0.331,18.168084 -1.0658141e-13,17.559084 -1.0658141e-13,16.941084 L-1.0658141e-13,1.77108398 C-1.0658141e-13,1.31608398 0.148,0.859083983 0.468,0.536083983 C0.934,0.0660839825 1.562,-0.0879160175 2.129,0.0470839825"/>
    <path fill="#FFF" d="M5.0308,10.992384 C5.5578,10.992384 5.9848,11.423384 5.9848,11.954384 C5.9848,12.486384 5.5578,12.917384 5.0308,12.917384 C4.5038,12.917384 4.0768,12.486384 4.0768,11.954384 C4.0768,11.423384 4.5038,10.992384 5.0308,10.992384 M5.0308,8.42638398 C5.5578,8.42638398 5.9848,8.85738398 5.9848,9.38838398 C5.9848,9.91938398 5.5578,10.350384 5.0308,10.350384 C4.5038,10.350384 4.0768,9.91938398 4.0768,9.38838398 C4.0768,8.85738398 4.5038,8.42638398 5.0308,8.42638398 M5.0308,5.85938398 C5.5578,5.85938398 5.9848,6.29038398 5.9848,6.82238398 C5.9848,7.35338398 5.5578,7.78438398 5.0308,7.78438398 C4.5038,7.78438398 4.0768,7.35338398 4.0768,6.82238398 C4.0768,6.29038398 4.5038,5.85938398 5.0308,5.85938398 M10.2358,12.917384 L7.5408,12.917384 C7.0448,12.917384 6.6428,12.486384 6.6428,11.954384 C6.6428,11.423384 7.0448,10.992384 7.5408,10.992384 L10.2358,10.992384 C10.7318,10.992384 11.1338,11.423384 11.1338,11.954384 C11.1338,12.486384 10.7318,12.917384 10.2358,12.917384 M10.2358,10.350384 L7.5408,10.350384 C7.0448,10.350384 6.6428,9.91938398 6.6428,9.38838398 C6.6428,8.85738398 7.0448,8.42638398 7.5408,8.42638398 L10.2358,8.42638398 C10.7318,8.42638398 11.1338,8.85738398 11.1338,9.38838398 C11.1338,9.91938398 10.7318,10.350384 10.2358,10.350384 M10.2358,7.78438398 L7.5408,7.78438398 C7.0448,7.78438398 6.6428,7.35338398 6.6428,6.82238398 C6.6428,6.29038398 7.0448,5.85938398 7.5408,5.85938398 L10.2358,5.85938398 C10.7318,5.85938398 11.1338,6.29038398 11.1338,6.82238398 C11.1338,7.35338398 10.7318,7.78438398 10.2358,7.78438398"/>
  </g>
</svg>
