<svg xmlns="http://www.w3.org/2000/svg" width="16" height="19" viewBox="0 0 16 19">
  <g fill="none" fill-rule="evenodd" transform="translate(.788)">
    <path fill="#FFCC01" d="M13.399,18.736784 L3.423,16.365784 C2.745,16.204784 2.267,15.600784 2.267,14.905784 L2.267,6.81478398 C2.267,6.11978398 2.745,5.51578398 3.423,5.35478398 L13.324,3.00178398 C13.812,2.88578398 14.345,2.97778398 14.717,3.31178398 C15.043,3.60378398 15.211,4.00378398 15.211,4.40978398 L15.211,17.199784 C15.211,17.848784 14.842,18.479784 14.227,18.694784 C13.957,18.788784 13.67,18.800784 13.399,18.736784" opacity=".2"/>
    <path fill="#FFCC01" d="M13.399,0.0399839825 L3.423,2.41098398 C2.745,2.57198398 2.267,3.17598398 2.267,3.87098398 L2.267,11.962984 C2.267,12.656984 2.745,13.260984 3.423,13.421984 L13.324,15.774984 C13.812,15.890984 14.345,15.799984 14.717,15.464984 C15.043,15.172984 15.211,14.772984 15.211,14.366984 L15.211,1.57698398 C15.211,0.927983983 14.842,0.296983983 14.227,0.0819839825 C13.957,-0.0120160175 13.67,-0.0240160175 13.399,0.0399839825" opacity=".2"/>
    <path fill="#FFCC01" d="M2.13,0.0470839825 L13.943,2.86508398 C14.687,3.04208398 15.212,3.70708398 15.212,4.47208398 L15.212,14.198084 C15.212,14.963084 14.687,15.628084 13.943,15.805084 L2.138,18.620084 C1.745,18.714084 1.322,18.692084 0.964,18.502084 C0.332,18.168084 0,17.559084 0,16.941084 L0,1.77108398 C0,1.31608398 0.149,0.859083983 0.469,0.536083983 C0.935,0.0660839825 1.562,-0.0879160175 2.13,0.0470839825"/>
    <path fill="#FFF" d="M5.0314,5.85988398 C5.5584,5.85988398 5.9854,6.29088398 5.9854,6.82188398 C5.9854,7.35388398 5.5584,7.78488398 5.0314,7.78488398 C4.5044,7.78488398 4.0774,7.35388398 4.0774,6.82188398 C4.0774,6.29088398 4.5044,5.85988398 5.0314,5.85988398 L5.0314,5.85988398 Z M10.1634,10.350884 C9.6364,10.350884 9.2094,9.91988398 9.2094,9.38888398 C9.2094,8.85688398 9.6364,8.42588398 10.1634,8.42588398 C10.6904,8.42588398 11.1174,8.85688398 11.1174,9.38888398 C11.1174,9.91988398 10.6904,10.350884 10.1634,10.350884 L10.1634,10.350884 Z M10.2364,7.78488398 L7.5414,7.78488398 C7.0454,7.78488398 6.6434,7.35388398 6.6434,6.82188398 C6.6434,6.29088398 7.0454,5.85988398 7.5414,5.85988398 L10.2364,5.85988398 C10.7324,5.85988398 11.1344,6.29088398 11.1344,6.82188398 C11.1344,7.35388398 10.7324,7.78488398 10.2364,7.78488398 L10.2364,7.78488398 Z M4.9754,8.42588398 L7.6704,8.42588398 C8.1664,8.42588398 8.5684,8.85688398 8.5684,9.38888398 C8.5684,9.91988398 8.1664,10.350884 7.6704,10.350884 L4.9754,10.350884 C4.4794,10.350884 4.0774,9.91988398 4.0774,9.38888398 C4.0774,8.85688398 4.4794,8.42588398 4.9754,8.42588398 L4.9754,8.42588398 Z M10.2364,10.992884 C10.7324,10.992884 11.1344,11.422884 11.1344,11.954884 C11.1344,12.485884 10.7324,12.916884 10.2364,12.916884 L4.9754,12.916884 C4.4794,12.916884 4.0774,12.485884 4.0774,11.954884 C4.0774,11.422884 4.4794,10.992884 4.9754,10.992884 L10.2364,10.992884 Z"/>
  </g>
</svg>
