<svg xmlns="http://www.w3.org/2000/svg" width="16" height="19" viewBox="0 0 16 19">
  <g fill="none" fill-rule="evenodd" transform="translate(.183)">
    <path fill="#FF5A93" d="M13.3986,18.736784 L3.4216,16.365784 C2.7446,16.204784 2.2656,15.600784 2.2656,14.905784 L2.2656,6.81478398 C2.2656,6.11978398 2.7446,5.51578398 3.4216,5.35478398 L13.3236,3.00178398 C13.8116,2.88578398 14.3436,2.97778398 14.7166,3.31178398 C15.0416,3.60378398 15.2106,4.00378398 15.2106,4.40978398 L15.2106,17.199784 C15.2106,17.848784 14.8406,18.479784 14.2256,18.694784 C13.9566,18.788784 13.6696,18.800784 13.3986,18.736784" opacity=".2"/>
    <path fill="#FF5A93" d="M13.3986,0.0399839825 L3.4216,2.41098398 C2.7446,2.57198398 2.2656,3.17598398 2.2656,3.87098398 L2.2656,11.962984 C2.2656,12.656984 2.7446,13.260984 3.4216,13.421984 L13.3236,15.774984 C13.8116,15.890984 14.3436,15.799984 14.7166,15.464984 C15.0416,15.172984 15.2106,14.772984 15.2106,14.366984 L15.2106,1.57698398 C15.2106,0.927983983 14.8406,0.296983983 14.2256,0.0819839825 C13.9566,-0.0120160175 13.6696,-0.0240160175 13.3986,0.0399839825" opacity=".2"/>
    <path fill="#FF5A93" d="M2.129,0.0470839825 L13.942,2.86508398 C14.686,3.04208398 15.211,3.70708398 15.211,4.47208398 L15.211,14.198084 C15.211,14.963084 14.686,15.628084 13.942,15.805084 L2.138,18.620084 C1.744,18.714084 1.321,18.692084 0.963,18.502084 C0.331,18.168084 -9.9475983e-14,17.559084 -9.9475983e-14,16.941084 L-9.9475983e-14,1.77108398 C-9.9475983e-14,1.31608398 0.148,0.859083983 0.468,0.536083983 C0.934,0.0660839825 1.562,-0.0879160175 2.129,0.0470839825"/>
    <path fill="#FFF" d="M6.0011,11.963084 C6.0011,12.490084 5.5701,12.917084 5.0391,12.917084 C4.5071,12.917084 4.0761,12.490084 4.0761,11.963084 C4.0761,11.436084 4.5071,11.009084 5.0391,11.009084 C5.5701,11.009084 6.0011,11.436084 6.0011,11.963084 L6.0011,11.963084 Z M6.6431,12.019084 L6.6431,9.32408398 C6.6431,8.82808398 7.0731,8.42608398 7.6051,8.42608398 C8.1361,8.42608398 8.5671,8.82808398 8.5671,9.32408398 L8.5671,12.019084 C8.5671,12.515084 8.1361,12.917084 7.6051,12.917084 C7.0731,12.917084 6.6431,12.515084 6.6431,12.019084 L6.6431,12.019084 Z M9.2091,6.75808398 C9.2091,6.26208398 9.6401,5.86008398 10.1711,5.86008398 C10.7031,5.86008398 11.1331,6.26208398 11.1331,6.75808398 L11.1331,12.019084 C11.1331,12.515084 10.7031,12.917084 10.1711,12.917084 C9.6401,12.917084 9.2091,12.515084 9.2091,12.019084 L9.2091,6.75808398 Z"/>
  </g>
</svg>
