<svg xmlns="http://www.w3.org/2000/svg" width="16" height="19" viewBox="0 0 16 19">
  <g fill="none" fill-rule="evenodd" transform="translate(.092)">
    <path fill="#4BD964" d="M13.3986,18.736784 L3.4216,16.365784 C2.7446,16.204784 2.2656,15.600784 2.2656,14.905784 L2.2656,6.81478398 C2.2656,6.11978398 2.7446,5.51578398 3.4216,5.35478398 L13.3236,3.00178398 C13.8116,2.88578398 14.3436,2.97778398 14.7166,3.31178398 C15.0426,3.60378398 15.2106,4.00378398 15.2106,4.40978398 L15.2106,17.199784 C15.2106,17.848784 14.8406,18.479784 14.2266,18.694784 C13.9566,18.788784 13.6696,18.800784 13.3986,18.736784" opacity=".2"/>
    <path fill="#4BD964" d="M13.3986,0.0399839825 L3.4216,2.41098398 C2.7446,2.57198398 2.2656,3.17598398 2.2656,3.87098398 L2.2656,11.962984 C2.2656,12.656984 2.7446,13.260984 3.4216,13.421984 L13.3236,15.774984 C13.8116,15.890984 14.3436,15.799984 14.7166,15.464984 C15.0426,15.172984 15.2106,14.772984 15.2106,14.366984 L15.2106,1.57698398 C15.2106,0.927983983 14.8406,0.296983983 14.2266,0.0819839825 C13.9566,-0.0120160175 13.6696,-0.0240160175 13.3986,0.0399839825" opacity=".2"/>
    <path fill="#4BD964" d="M2.129,0.0470839825 L13.942,2.86508398 C14.686,3.04208398 15.211,3.70708398 15.211,4.47208398 L15.211,14.198084 C15.211,14.963084 14.686,15.628084 13.942,15.805084 L2.138,18.620084 C1.744,18.714084 1.321,18.692084 0.963,18.502084 C0.331,18.168084 7.10542736e-15,17.559084 7.10542736e-15,16.941084 L7.10542736e-15,1.77108398 C7.10542736e-15,1.31608398 0.148,0.859083983 0.468,0.536083983 C0.934,0.0660839825 1.562,-0.0879160175 2.129,0.0470839825"/>
    <path fill="#FFF" d="M5.0421,5.86398398 C5.5731,5.86398398 6.0031,6.29198398 6.0031,6.81898398 C6.0031,7.34698398 5.5731,7.77398398 5.0421,7.77398398 C4.5111,7.77398398 4.0811,7.34698398 4.0811,6.81898398 C4.0811,6.29198398 4.5111,5.86398398 5.0421,5.86398398 L5.0421,5.86398398 Z M10.1681,11.002984 C10.6991,11.002984 11.1291,11.429984 11.1291,11.957984 C11.1291,12.484984 10.6991,12.912984 10.1681,12.912984 C9.6371,12.912984 9.2071,12.484984 9.2071,11.957984 C9.2071,11.429984 9.6371,11.002984 10.1681,11.002984 L10.1681,11.002984 Z M9.4951,6.13998398 C9.8451,5.78898398 10.4341,5.80898398 10.8091,6.18498398 C11.1841,6.56198398 11.2051,7.15098398 10.8541,7.50198398 L5.7151,12.653984 C5.3651,13.004984 4.7761,12.984984 4.4011,12.607984 C4.0261,12.231984 4.0051,11.641984 4.3551,11.290984 L9.4951,6.13998398 Z"/>
  </g>
</svg>
